<?xml version="1.0" encoding="UTF-8"?>
<svg version="1.1" xmlns="http://www.w3.org/2000/svg" width="192" height="192">
<path d="M0 0 C63.36 0 126.72 0 192 0 C192 63.36 192 126.72 192 192 C128.64 192 65.28 192 0 192 C0 128.64 0 65.28 0 0 Z " fill="#020712" transform="translate(0,0)"/>
<path d="M0 0 C1.17353027 0.5770166 2.34706055 1.1540332 3.55615234 1.74853516 C4.884875 2.39140874 6.21398947 3.03347301 7.54345703 3.67480469 C8.56046692 4.17056 8.56046692 4.17056 9.59802246 4.67633057 C12.85762645 6.24909679 16.15124446 7.74508384 19.44677734 9.24072266 C20.099758 9.53806808 20.75273865 9.83541351 21.42550659 10.14176941 C22.76737042 10.75277569 24.10944428 11.36332092 25.45172119 11.97341919 C27.57824252 12.94040542 29.70365636 13.90980147 31.82910156 14.87915039 C38.55743694 17.94188911 45.29679027 20.96533164 52.09521484 23.86962891 C53.79508545 24.59907715 53.79508545 24.59907715 55.52929688 25.34326172 C57.61931094 26.2352448 59.71378358 27.11688532 61.81347656 27.98583984 C68.82652126 30.98228965 75.57749842 34.2918765 78.64208984 41.66259766 C78.91624451 44.23594666 78.91624451 44.23594666 78.94848633 47.17797852 C78.96447372 48.28270004 78.98046112 49.38742157 78.99693298 50.52561951 C79.00229568 51.71422073 79.00765839 52.90282196 79.01318359 54.12744141 C79.02221207 55.35290176 79.03124054 56.57836212 79.0405426 57.84095764 C79.05504907 60.43243972 79.06393281 63.02395846 79.06762695 65.61547852 C79.07953455 69.58168053 79.12873028 73.54633283 79.17919922 77.51220703 C79.188662 80.02977756 79.19589773 82.54735764 79.20068359 85.06494141 C79.22021591 86.2515184 79.23974823 87.4380954 79.25987244 88.66062927 C79.20962725 97.81953228 79.20962725 97.81953228 76.29467773 100.91088867 C73.64208984 102.66259766 73.64208984 102.66259766 70.64208984 103.28759766 C66.55538739 102.43620131 65.22749779 100.9096459 62.64208984 97.66259766 C62.20205843 94.87421792 62.05123553 92.72207713 62.15380859 89.95556641 C62.16088333 89.23017166 62.16795807 88.50477692 62.17524719 87.75740051 C62.20310579 85.45389062 62.26581794 83.15286515 62.32958984 80.85009766 C62.35468421 79.28307562 62.3774954 77.71601526 62.39794922 76.14892578 C62.44864389 72.31843668 62.5464822 68.49327722 62.64208984 64.66259766 C57.69208984 66.97259766 52.74208984 69.28259766 47.64208984 71.66259766 C47.61630859 73.59103516 47.59052734 75.51947266 47.56396484 77.50634766 C47.5076684 80.05845314 47.45032142 82.6105356 47.39208984 85.16259766 C47.37791016 86.43103516 47.36373047 87.69947266 47.34912109 89.00634766 C47.12102091 97.7653947 46.21790122 103.49081771 40.39208984 110.28759766 C39.03083984 111.46322266 39.03083984 111.46322266 37.64208984 112.66259766 C37.10068359 113.14470703 36.55927734 113.62681641 36.00146484 114.12353516 C30.19579715 118.92906682 23.75182075 121.34474319 16.64208984 123.66259766 C15.70236328 123.98486328 14.76263672 124.30712891 13.79443359 124.63916016 C-7.11221328 130.66072467 -31.23782305 127.48597633 -50.34228516 117.54150391 C-55.1066695 114.57302092 -59.28262447 111.46325218 -62.17041016 106.53759766 C-62.56873047 105.87501953 -62.96705078 105.21244141 -63.37744141 104.52978516 C-65.37341133 100.72869503 -65.54034543 97.47428412 -65.67431641 93.24462891 C-65.71621094 91.99101563 -65.75810547 90.73740234 -65.80126953 89.44580078 C-65.84058594 88.13546875 -65.87990234 86.82513672 -65.92041016 85.47509766 C-65.96362008 84.13979787 -66.00723516 82.80451113 -66.05126953 81.46923828 C-66.15747517 78.20046469 -66.25952013 74.93161433 -66.35791016 71.66259766 C-66.99293457 71.38585205 -67.62795898 71.10910645 -68.28222656 70.82397461 C-71.18702631 69.55117115 -74.08490903 68.26330118 -76.98291016 66.97509766 C-77.98193359 66.54003906 -78.98095703 66.10498047 -80.01025391 65.65673828 C-87.09832082 62.48823155 -94.18673998 59.23817085 -97.35791016 51.66259766 C-97.92402972 45.81269552 -97.31465082 41.88617283 -94.35791016 36.66259766 C-90.1348897 32.70490808 -85.95908812 30.24912426 -80.69775391 27.91259766 C-79.96292282 27.57725006 -79.22809174 27.24190247 -78.47099304 26.89639282 C-76.08312285 25.80940474 -73.68947772 24.73585794 -71.29541016 23.66259766 C-69.63734887 22.91124582 -67.97963712 22.15912219 -66.32226562 21.40625 C-62.13886102 19.50889796 -57.95039744 17.62304104 -53.75982666 15.74157715 C-51.47175748 14.71373971 -49.18483976 13.6833948 -46.8984375 12.65185547 C-39.61906766 9.36783796 -32.33908661 6.0849505 -25.03662109 2.85253906 C-23.42548532 2.13683766 -21.81803779 1.41262024 -20.21826172 0.671875 C-13.41414616 -2.42475195 -7.012649 -2.79302684 0 0 Z " fill="#3A80F2" transform="translate(105.35791015625,33.33740234375)"/>
<path d="M0 0 C0.78226959 0.36611893 1.56453918 0.73223785 2.37051392 1.10945129 C4.9015203 2.29618386 7.42518155 3.49774585 9.94921875 4.69921875 C12.56863562 5.93092909 15.18996275 7.15850457 17.81147766 8.38574219 C19.56423778 9.20645962 21.31642607 10.02839939 23.06803894 10.8515625 C30.85842163 14.50844969 38.70134571 18.03662773 46.57421875 21.51171875 C47.70964111 22.01356689 48.84506348 22.51541504 50.01489258 23.0324707 C52.554401 24.15308428 55.09485442 25.27146201 57.63671875 26.38671875 C57.63671875 27.04671875 57.63671875 27.70671875 57.63671875 28.38671875 C48.48881794 32.59809482 39.33264366 36.79084337 30.16479492 40.95863342 C26.02417961 42.84149227 21.8862872 44.72981723 17.75488281 46.6328125 C13.87751325 48.41839325 9.99279019 50.18691958 6.10223389 51.943573 C4.63237139 52.61075913 3.16523693 53.28399026 1.70098877 53.96340942 C-0.34993272 54.9137799 -2.40960018 55.8419553 -4.47265625 56.765625 C-5.63764648 57.29744385 -6.80263672 57.8292627 -8.00292969 58.37719727 C-14.74317952 60.40211248 -20.09682857 57.90551324 -26.12109375 55.02734375 C-26.85482712 54.68620041 -27.58856049 54.34505707 -28.3445282 53.99357605 C-30.72968631 52.88278159 -33.10883845 51.75969601 -35.48828125 50.63671875 C-37.96903078 49.47840374 -40.45133016 48.32345686 -42.93373108 47.16868591 C-44.61157237 46.38795491 -46.28892901 45.60618155 -47.96580505 44.82337952 C-55.99984306 41.07604071 -64.07993852 37.43567197 -72.17578125 33.82421875 C-73.42661531 33.26534482 -74.67742975 32.70642697 -75.92822266 32.14746094 C-78.73920492 30.89229079 -81.55082231 29.63857569 -84.36328125 28.38671875 C-84.36328125 27.72671875 -84.36328125 27.06671875 -84.36328125 26.38671875 C-82.02874152 25.31098984 -79.69409998 24.23548299 -77.359375 23.16015625 C-76.25266449 22.65035217 -76.25266449 22.65035217 -75.12359619 22.13024902 C-71.00413649 20.23351166 -66.8830121 18.34050634 -62.7590332 16.45361328 C-61.0489634 15.67095848 -59.3389213 14.88824317 -57.62890625 14.10546875 C-56.76935837 13.71205292 -55.90981049 13.31863708 -55.0242157 12.91329956 C-50.15715487 10.68145858 -45.30326007 8.42451025 -40.46336365 6.1343689 C-37.65832256 4.80937698 -34.84664166 3.49890252 -32.03372192 2.19073486 C-30.72128237 1.57585137 -29.41201403 0.95414894 -28.10617065 0.32537842 C-26.2874905 -0.54941193 -24.4564326 -1.39832593 -22.625 -2.24609375 C-21.60365967 -2.72965332 -20.58231934 -3.21321289 -19.5300293 -3.71142578 C-12.32629788 -5.76297029 -6.42080096 -3.09927483 0 0 Z " fill="#020713" transform="translate(109.36328125,52.61328125)"/>
<path d="M0 0 C3.60485792 1.56090848 7.20875313 3.12402828 10.8125 4.6875 C12.31973633 5.34008789 12.31973633 5.34008789 13.85742188 6.00585938 C14.85966797 6.44091797 15.86191406 6.87597656 16.89453125 7.32421875 C17.90563965 7.76266113 18.91674805 8.20110352 19.95849609 8.65283203 C23.828363 10.36690536 27.64895991 12.18029299 31.46069336 14.01977539 C37.62519123 16.3993984 43.30898919 16.01871789 49.42578125 13.703125 C51.92900578 12.57067343 54.37500562 11.34167858 56.8203125 10.08984375 C61.58332569 7.65254784 66.49773154 5.61131569 71.4375 3.5625 C72.28513916 3.20865234 73.13277832 2.85480469 74.00610352 2.49023438 C76.00294078 1.65744584 78.00130053 0.82830925 80 0 C80.10829314 2.89684158 80.18743954 5.78961019 80.25 8.6875 C80.28351563 9.50412109 80.31703125 10.32074219 80.3515625 11.16210938 C80.41626941 15.15776133 80.34682734 17.41251695 78.27734375 20.91796875 C66.00106073 32.14139731 48.01268124 32.63035712 32.34619141 32.13183594 C21.49315167 31.52198771 9.8627718 28.33966253 1.6796875 20.88671875 C-0.7059233 16.78679694 -0.44076637 13.33559586 -0.25 8.6875 C-0.23195312 7.85154297 -0.21390625 7.01558594 -0.1953125 6.15429688 C-0.14841126 4.10236772 -0.07667411 2.05103244 0 0 Z " fill="#020815" transform="translate(56,112)"/>
</svg>
